<svg width="16" height="16" viewBox="0 0 16 16" xmlns="http://www.w3.org/2000/svg">
    <path d="M8 3.25C7.59 3.25 7.25 3.59 7.25 4V8C7.25 8.2 7.33 8.39 7.47 8.53L9.47 10.53C9.62 10.68 9.81 10.75 10 10.75C10.19 10.75 10.38 10.68 10.53 10.53C10.82 10.24 10.82 9.76 10.53 9.47L8.75 7.69V4C8.75 3.59 8.41 3.25 8 3.25Z" />
    <path d="M8 0C3.58 0 0 3.58 0 8C0 8.17 0.01 8.33 0.03 8.5H1.53C1.52 8.33 1.5 8.17 1.5 8C1.5 4.42 4.42 1.5 8 1.5C11.58 1.5 14.5 4.42 14.5 8C14.5 11.58 11.58 14.5 8 14.5C5.71 14.5 3.71 13.3 2.55 11.5H5.25C5.66 11.5 6 11.16 6 10.75C6 10.34 5.66 10 5.25 10H0V15.25C0 15.66 0.34 16 0.75 16C1.16 16 1.5 15.66 1.5 15.25V12.64C2.95 14.67 5.31 16 8 16C12.42 16 16 12.42 16 8C16 3.58 12.42 0 8 0Z" />
</svg>
