<svg width="14" height="14" viewBox="0 0 14 14"  xmlns="http://www.w3.org/2000/svg">
<path d="M7.00004 1.66667C3.69337 1.66667 1.00004 4.36 1.00004 7.66667C1.00004 9.04667 1.47337 10.3133 2.26004 11.3333L1.16671 12.56C0.920041 12.8333 0.946707 13.2533 1.22004 13.5C1.34671 13.6133 1.50671 13.6667 1.66004 13.6667C1.84671 13.6667 2.02671 13.5933 2.16004 13.44L3.18004 12.2933C4.22004 13.1533 5.55337 13.6667 7.00004 13.6667C10.3067 13.6667 13 10.9733 13 7.66667C13 4.36 10.3067 1.66667 7.00004 1.66667ZM7.00004 12.3333C4.42671 12.3333 2.33337 10.24 2.33337 7.66667C2.33337 5.09333 4.42671 3 7.00004 3C9.57337 3 11.6667 5.09333 11.6667 7.66667C11.6667 10.24 9.57337 12.3333 7.00004 12.3333ZM1.78004 3.52667C1.70671 3.36667 1.66671 3.18667 1.66671 3C1.66671 2.26667 2.26671 1.66667 3.00004 1.66667C3.26004 1.66667 3.50004 1.74667 3.70671 1.87333C4.12671 1.63333 4.56671 1.44 5.03337 1.29333C4.54671 0.713334 3.82004 0.333333 3.00004 0.333333C1.52671 0.333333 0.333374 1.52667 0.333374 3C0.333374 3.67333 0.593374 4.28667 1.00671 4.75333C1.22004 4.32 1.48004 3.90667 1.78004 3.52667ZM11 1.66667C11.7334 1.66667 12.3334 2.26667 12.3334 3C12.3334 3.18667 12.2934 3.36667 12.22 3.52667C12.52 3.90667 12.7734 4.31333 12.9867 4.75333C13.4067 4.28667 13.6667 3.67333 13.6667 3C13.6667 1.52667 12.4734 0.333333 11 0.333333C10.18 0.333333 9.45337 0.713334 8.96671 1.29333C9.43337 1.44 9.87337 1.63333 10.2934 1.87333C10.5 1.74667 10.74 1.66667 11 1.66667ZM7.00004 4.33333V7.66667L9.00671 5.00667C8.72004 4.78667 8.40004 4.62 8.06004 4.50667C7.72004 4.39333 7.36004 4.33333 7.00004 4.33333ZM12.1934 11.84C11.9134 12.1867 11.6 12.5067 11.26 12.7933L11.8334 13.44C11.9667 13.5867 12.1467 13.6667 12.3334 13.6667C12.4934 13.6667 12.6467 13.6133 12.7734 13.5C13.0467 13.2533 13.0734 12.8333 12.8267 12.56L12.1934 11.84Z" />
</svg>
