<svg width="24" height="18" viewBox="0 0 24 18" fill="none" xmlns="http://www.w3.org/2000/svg">
<path fill-rule="evenodd" clip-rule="evenodd" d="M13.5 0C17.4015 0 20.604 2.979 20.9655 6.7875C22.776 7.8195 24 9.765 24 12C24 15.3135 21.3135 18 18 18H6C2.6865 18 0 15.3135 0 12C0 8.6865 2.6865 6 6 6C6.029 6 6.05704 6.00194 6.08521 6.00389C6.10657 6.00537 6.128 6.00685 6.15 6.0075C6.8415 2.5815 9.87 0 13.5 0ZM15.125 10.5519C15.1887 10.2688 15.3694 10 15.75 10C16.0431 10 16.375 10.21 16.375 10.6637C16.375 11.4062 15.1187 14.375 12 14.375C11.1781 14.375 10.4113 14.145 9.755 13.7494L9.5 14.0037C9.47982 14.0245 9.46037 14.0449 9.44137 14.0649C9.27674 14.2379 9.1462 14.375 8.875 14.375C8.5175 14.375 8.25 14.0881 8.25 13.75V11.875C8.25 11.5575 8.49438 11.25 8.875 11.25H10.75C11.1012 11.25 11.375 11.5481 11.375 11.875C11.375 12.1491 11.2372 12.2812 11.0183 12.4908L11.0087 12.5L10.6788 12.8288C11.0794 13.0175 11.5269 13.125 12 13.125C13.9275 13.125 14.8969 11.5725 15.125 10.5519ZM12 6.875C10.0725 6.875 9.10312 8.42813 8.875 9.44812C8.81125 9.73125 8.63062 10 8.25 10C7.95687 10 7.625 9.79 7.625 9.33625C7.625 8.59375 8.88125 5.625 12 5.625C12.8219 5.625 13.5887 5.855 14.245 6.25063L14.5 5.99625C14.5202 5.97549 14.5396 5.95505 14.5586 5.93509C14.7233 5.76214 14.8538 5.625 15.125 5.625C15.4825 5.625 15.75 5.91187 15.75 6.25V8.125C15.75 8.4425 15.5056 8.75 15.125 8.75H13.25C12.8988 8.75 12.625 8.45187 12.625 8.125C12.625 7.85085 12.7628 7.7188 12.9817 7.50917L12.9913 7.5L13.3212 7.17062C12.9206 6.98187 12.4731 6.875 12 6.875Z" fill="white"/>
</svg>
