<svg width="22" height="16" viewBox="0 0 22 16" fill="none" xmlns="http://www.w3.org/2000/svg">
<path fill-rule="evenodd" clip-rule="evenodd" d="M12 0C15.468 0 18.3147 2.648 18.636 6.03333C20.2453 6.95067 21.3333 8.68 21.3333 10.6667C21.3333 13.612 18.9453 16 16 16H5.33333C2.388 16 0 13.612 0 10.6667C0 7.72133 2.388 5.33333 5.33333 5.33333C5.35911 5.33333 5.38403 5.33506 5.40907 5.33679C5.42806 5.33811 5.44711 5.33943 5.46667 5.34C6.08133 2.29467 8.77333 0 12 0ZM12 9V4H10V9H8L11 13L14 9H12Z" fill="#00AB44"/>
</svg>
